<?xml version="1.0" encoding="UTF-8"?><!DOCTYPE svg PUBLIC "-//W3C//DTD SVG 1.1//EN" "http://www.w3.org/Graphics/SVG/1.1/DTD/svg11.dtd"><svg xmlns="http://www.w3.org/2000/svg" xmlns:xlink="http://www.w3.org/1999/xlink" version="1.1" width="24" height="24" viewBox="0 0 24.00 24.00"><path d="M12 15.5C10.0664 15.5 8.5 13.931 8.5 12C8.5 10.0651 10.0664 8.5 12 8.5C13.9324 8.5 15.5 10.0651 15.5 12C15.5 13.931 13.9324 15.5 12 15.5ZM19.4284 12.9741C19.4704 12.6531 19.5 12.329 19.5 12C19.5 11.6671 19.4704 11.343 19.4284 11L21.5414 9.36804C21.7294 9.21606 21.7844 8.94604 21.6594 8.73004L19.6594 5.26605C19.5354 5.05005 19.2734 4.96204 19.0474 5.04907L16.5584 6.05206C16.0424 5.65607 15.4774 5.32104 14.8684 5.06903L14.5 2.41907C14.4554 2.18103 14.2484 2 14 2L10 2C9.74939 2 9.5434 2.18103 9.5 2.41907L9.1304 5.06805C8.52039 5.32104 7.95538 5.65607 7.43939 6.05206L4.95139 5.04907C4.7254 4.96204 4.46338 5.05005 4.33939 5.26605L2.33939 8.73004C2.21439 8.94604 2.26938 9.21606 2.4574 9.36804L4.5694 11C4.5274 11.342 4.5 11.6671 4.5 12C4.5 12.329 4.5274 12.6541 4.5694 12.9741L2.4574 14.6271C2.26938 14.78 2.21439 15.05 2.33939 15.2661L4.33939 18.73C4.46338 18.946 4.7254 19.0341 4.95139 18.947L7.4404 17.944C7.95639 18.34 8.52139 18.675 9.1304 18.9271L9.5 21.577C9.5434 21.8151 9.74939 22 10 22L14 22C14.2484 22 14.4554 21.8151 14.5 21.577L14.8684 18.9271C15.4764 18.6741 16.0414 18.34 16.5574 17.9431L19.0474 18.947C19.2734 19.0341 19.5354 18.946 19.6594 18.73L21.6594 15.2661C21.7844 15.05 21.7294 14.78 21.5414 14.6271L19.4284 12.9741Z" /></svg>